<?xml version="1.0" encoding="UTF-8" standalone="no"?>
<!-- Created with Inkscape (http://www.inkscape.org/) -->

<svg
   xmlns:dc="http://purl.org/dc/elements/1.1/"
   xmlns:cc="http://creativecommons.org/ns#"
   xmlns:rdf="http://www.w3.org/1999/02/22-rdf-syntax-ns#"
   xmlns:svg="http://www.w3.org/2000/svg"
   xmlns="http://www.w3.org/2000/svg"
   xmlns:sodipodi="http://sodipodi.sourceforge.net/DTD/sodipodi-0.dtd"
   xmlns:inkscape="http://www.inkscape.org/namespaces/inkscape"
   width="27.361816mm"
   height="27.401594mm"
   viewBox="0 0 27.361816 27.401594"
   version="1.1"
   id="svg8"
   inkscape:version="0.92.3 (2405546, 2018-03-11)"
   sodipodi:docname="arrow-down.svg">
  <defs
     id="defs2" />
  <sodipodi:namedview
     id="base"
     pagecolor="#ffffff"
     bordercolor="#666666"
     borderopacity="1.0"
     inkscape:pageopacity="0.0"
     inkscape:pageshadow="2"
     inkscape:zoom="0.98994949"
     inkscape:cx="-69.014151"
     inkscape:cy="50.424798"
     inkscape:document-units="mm"
     inkscape:current-layer="layer1"
     showgrid="false"
     fit-margin-top="0"
     fit-margin-left="0"
     fit-margin-right="0"
     fit-margin-bottom="0"
     inkscape:window-width="1920"
     inkscape:window-height="1025"
     inkscape:window-x="0"
     inkscape:window-y="0"
     inkscape:window-maximized="1" />
  <metadata
     id="metadata5">
    <rdf:RDF>
      <cc:Work
         rdf:about="">
        <dc:format>image/svg+xml</dc:format>
        <dc:type
           rdf:resource="http://purl.org/dc/dcmitype/StillImage" />
        <dc:title></dc:title>
      </cc:Work>
    </rdf:RDF>
  </metadata>
  <g
     inkscape:label="Layer 1"
     inkscape:groupmode="layer"
     id="layer1"
     transform="translate(-16.37336,-100.55534)">
    <path
       style="fill:#000000;stroke-width:1"
       d="m 27.270981,127.69722 c -2.289275,-0.4334 -5.048821,-1.95126 -6.884066,-3.78651 -7.920562,-7.92056 -3.4616,-21.47509 7.631903,-23.19976 5.822947,-0.905279 11.756768,2.20966 14.306093,7.50994 4.939754,10.27017 -3.819891,21.60314 -15.05393,19.47633 z m 7.868809,-10.20494 c 2.729915,-2.72708 4.963482,-5.06455 4.963482,-5.19439 0,-0.12983 -0.773609,-0.96532 -1.719132,-1.85665 l -1.719133,-1.62059 -3.30795,3.30795 -3.307951,3.30795 -3.308785,-3.30878 -3.308784,-3.30879 -1.718299,1.60395 c -0.945064,0.88217 -1.718298,1.71572 -1.718298,1.85233 0,0.25002 9.802094,10.17535 10.049009,10.17535 0.0728,0 2.365925,-2.23125 5.095841,-4.95833 z"
       id="path826"
       inkscape:connector-curvature="0" />
  </g>
</svg>
